<svg version="1.2" xmlns="http://www.w3.org/2000/svg" viewBox="0 0 1920 1920" width="1920" height="1920">
	<title>Nouveau projet</title>
	<style>
		.s0 { fill: #f9b013 } 
		.s1 { fill: #fdfdf7 } 
		.s2 { fill: #23282c } 
		.s3 { fill: #20262b } 
	</style>
	<g id="Dossier 1">
		<path id="Remplissage couleur unie 2" fill-rule="evenodd" class="s0" d="m615.8 65.1h709.8l4.5 3.2c2.9 2 7.5 3.3 13.6 3.9 7.1 0.5 9.4 1.3 10 3.3 0.3 1.4 2.3 3.2 4.3 4 2.1 0.9 5.4 1.5 7.4 1.5 2.7 0 3.7 0.8 3.7 3 0 1.6 1 3.2 2.2 3.6 1.2 0.5 3.4 0.8 4.8 0.7 1.4 0 3.4 1.7 4.4 3.7 1 2.1 2.7 3.7 3.7 3.7 1 0 5 3 8.8 6.6 3.9 3.7 7.7 6.7 8.5 6.7 0.8 0 1.8 2.3 2.2 5.2 0.5 3.5 1.6 5.3 3.7 5.8 1.9 0.5 3.2 2.4 3.7 5.2 0.4 2.4 2 5.2 3.6 6.3 1.7 1 3 3 3 4.4 0 1.4 0.6 2.6 1.5 2.6 0.8 0 1.4 1.6 1.4 3.6 0 2.1 1.4 4.9 3 6.3 1.6 1.4 2.9 3.7 2.9 5.2 0 1.4 0.5 2.5 1.1 2.5 0.6 0 0.9 3.5 0.6 7.8-0.3 5.1 0.5 10.8 2.6 16.9 2.3 6.8 3.1 12.8 3 22.8 0 10.1-0.6 14.2-2.2 15.9-1.3 1.3-2.6 6.7-3.3 13.3-0.8 8.8-1.8 12-4.8 15.5-2.1 2.3-4.2 6.8-4.8 9.8-0.6 3.1-1.7 5.5-2.5 5.5-0.8 0-2.5 2-3.7 4.5-1.2 2.4-2.2 5.7-2.2 7.3q0 3-2.9 3c-1.8 0-3.4 1.3-4 3.3-0.6 1.8-0.9 3.8-0.7 4.4 0.1 0.6-1.1 1.8-2.7 2.6-1.6 0.8-2.9 2.4-2.9 3.7 0 1.2-1.1 2.2-2.3 2.2-1.3 0-3.9 1.6-5.9 3.7-2 2-5.4 4.5-7.7 5.5-3.3 1.5-4.1 2.9-4.4 8.1-0.3 5.4 0.1 6.5 3.5 8.1 3.1 1.5 5.3 1.4 11.4-0.3 6-1.7 23.4-2.2 83.8-2.6 68.1-0.4 76.7-0.2 81 2 2.6 1.3 8.8 2.9 13.6 3.6 5.4 0.8 10 2.4 11.8 4.2 1.6 1.5 4.9 3.2 7.4 3.7 2.4 0.5 6.5 2.8 9.2 5.3 2.6 2.4 6.2 4.3 8.1 4.3 2 0 3.9 1.3 4.8 3.3 0.8 1.9 2.8 3.5 4.4 3.8 1.6 0.2 3.6 1.8 4.4 3.6 0.8 1.8 2.9 4 4.7 4.8 1.8 0.8 3.6 3.3 4 5.5 0.5 2.4 2.1 4.4 3.8 4.8 1.6 0.4 2.9 1.6 2.9 2.6 0 1 2 4.8 4.4 8.4 2.4 3.7 4.4 7.7 4.4 8.9 0.1 1.2 2.1 4.3 4.5 7 2.9 3.1 4.4 6.3 4.4 9.2 0 2.4 0.9 6.1 1.9 8.1 1 2.1 2.3 3.7 2.9 3.7 0.6 0 1.5 1.5 1.9 3.3 0.5 1.8 1 17.4 1.1 34.6 0.2 17.2-0.2 31.3-0.8 31.3-0.6 0-1.1 1.6-1.1 3.7 0 2-1.3 5.5-3 7.7-1.7 2.3-3 6.3-2.9 9.2 0 2.8-0.5 5.9-1.1 6.7-0.6 0.9-2.2 2.1-3.7 2.6-1.6 0.7-2.5 2.6-2.5 5.4 0 2.5-0.7 4.4-1.5 4.4-0.8 0-1.5 1-1.5 2.3 0 1.2-1.3 2.5-2.9 2.9-1.7 0.4-3 2-3 3.7 0 1.6-2 4.9-4.4 7.3-2.4 2.5-4.4 5.1-4.4 5.9 0 0.8-2.1 3.3-4.6 5.6-2.5 2.2-6.2 5.5-8.1 7.3-1.9 1.8-5 3.8-6.8 4.3-1.8 0.5-4.2 1.6-5.2 2.5-1.1 0.9-1.9 3.8-1.9 6.5 0 2.6 1.2 5.8 2.7 7.1 1.9 1.9 4 2.2 9.2 1.4 3.6-0.6 7.7-1.7 9.2-2.4 1.4-0.7 18-1.3 36.8-1.2 29.9 0.1 35.5 0.5 44.5 3.1 6.5 1.9 12.5 2.8 16.2 2.3 5-0.6 6.6-0.1 10.1 3.1 2.3 2.1 7.1 4.7 10.7 5.7 3.6 1 6.5 2.5 6.5 3.3 0 0.8 2.1 2.5 4.8 3.8 2.6 1.2 5.6 2.2 6.6 2.2 1-0.1 2.2 1.3 2.6 2.9 0.4 1.7 2.5 3.4 5.2 4 2.4 0.6 4.4 2 4.4 3 0 1 1.4 2.4 3.3 3.1 1.8 0.7 3.8 3 4.4 5.1 0.7 2.6 2.4 4.2 4.8 4.7 2.7 0.5 3.6 1.6 3.6 4.4 0 2.3 1.4 4.5 3.7 5.9 2.1 1.2 3.7 3.2 3.7 4.4 0 1.2 0.8 3.9 1.9 5.9 1 2.1 3 4.1 4.4 4.5 1.8 0.4 2.5 2.1 2.5 5.8 0 2.8 0.7 6.5 1.5 8.1 0.8 1.6 2.5 2.9 3.7 2.9 1.6 0 2.2 1.7 2.2 5.9 0 3.3 1.4 14 3.1 24 2.2 12.9 2.8 20.7 2.1 27.6-0.5 5.2-1.9 13.5-3 18.4-1.2 4.8-2.2 12-2.2 15.8 0 3.9-0.6 7-1.4 7-0.7 0-2.4 1-3.6 2.2-1.4 1.3-2.3 4.6-2.3 7.7 0 4.4-0.7 5.9-3.3 7.2-2.2 1-3.8 3.5-4.5 7-0.7 3.5-2.2 5.8-4.1 6.5-1.7 0.6-3.5 2.7-4 4.8-0.5 2-2.8 5.1-5 6.9-2.3 1.9-4.2 4.4-4.2 5.6 0 1.2-1.1 2.2-2.6 2.1-1.4 0-3.5 1.1-4.8 2.5-1.2 1.4-2.9 4.5-3.8 7-1.4 4-1.2 4.9 1.5 7.2 1.7 1.4 3.9 2.6 4.9 2.5 1 0 2.2 1.4 2.6 3 0.4 1.6 2.1 3.6 3.7 4.4 1.6 0.8 3.8 1.1 4.8 0.7 1-0.5 2.6 0.8 3.7 2.9 1 2.1 3.3 4.3 5.1 5.1 1.8 0.7 7.1 5 11.8 9.5 4.6 4.6 8.5 9 8.5 9.8 0 0.8 1.6 3.1 3.6 5.1 2.1 2.1 3.7 4.4 3.7 5.2 0 0.8 1.7 3.4 3.7 5.9 2 2.4 3.7 5.9 3.7 7.7 0 1.8 2 5.5 4.4 8.1 3.5 3.8 4.4 6.1 4.4 11.1 0 3.4 1 7.5 2.2 9.2 1.7 2.3 2.2 8.1 2.2 27.2 0.1 19.9-0.4 25.2-2.4 29.5-1.4 3-2.4 8.5-2.4 13.2 0.1 4.5-0.7 9.4-1.6 10.9-0.9 1.6-2.9 4.2-4.4 5.9-2 2.2-2.5 4.3-1.9 7.1 0.6 2.4 0.2 5.4-0.9 7-1 1.7-2.7 3-3.7 3-1 0-2.1 1-2.5 2.2-0.4 1.2-0.8 3.5-0.8 5.1 0 1.7-0.6 3-1.5 3-0.8 0-1.4 0.7-1.4 1.5 0 0.8-1.4 2.6-3 4-1.7 1.4-3.4 5.2-3.9 8.5-0.5 3.2-2.2 6.7-3.7 7.7-1.6 1.1-2.7 3.6-2.7 6.3 0 2.6 1.4 5.7 3.3 7.7 3.3 3.3 3.3 3.8 3.3 84.5l-4 3.9c-3.3 3.3-4 5.3-4 11 0 6.1-0.5 7.3-3.7 8.9-2.1 1-4.1 3.6-4.6 5.8-0.5 2.3-2.5 5.6-4.5 7.4-1.9 1.8-3.5 4.2-3.4 5.2 0 1-2.4 4.5-5.2 7.7-2.8 3.2-5.1 6.4-5.1 7 0 0.6-1.7 1.8-3.7 2.6-2.1 0.8-4.6 3.1-5.6 5.1-1.2 2.4-3.5 3.9-6.6 4.4-3.2 0.5-5 1.8-5.5 3.7-0.5 2-2 3-4.5 3-2.1 0-5.4 1.6-7.4 3.7-2 2-5.7 4.1-8.4 4.6-2.6 0.5-5.9 1.7-7.3 2.6-1.5 0.9-2.6 2.4-2.6 3.4 0 1-1 2.2-2.2 2.6-1.2 0.4-6 0.7-10.7 0.7-4.7 0-12.1 0.7-16.6 1.4-4.4 0.8-16 1.9-25.7 2.4-9.8 0.6-23.3 1.1-30.2 1.1-6.9 0-15.2-0.5-18.4-1.1-4.2-0.9-7.4-0.7-10.8 0.8-2.7 1.1-5.3 3.4-5.7 5-0.5 1.6-0.5 4-0.1 5.2 0.3 1.2 2.7 2.7 5.3 3.3 2.5 0.6 4.9 2.3 5.3 3.7 0.4 1.4 3.4 3.7 6.7 5.1 3.2 1.4 5.9 3.6 5.9 4.8 0 1.2 2 4.2 4.4 6.6 2.4 2.5 4.4 5.8 4.4 7.4 0 1.6 1.3 4.1 2.9 5.5 1.5 1.4 4.1 5.6 5.6 9.2 1.6 3.7 4 7.6 5.4 8.9 1.5 1.3 2.4 4.3 2.4 7.7-0.1 3.6 0.9 6.5 2.9 8.5 1.6 1.6 2.9 3.9 2.9 5.1 0 1.2 0.5 2.2 1.1 2.2 0.6 0 1.1 15.3 1.1 33.9 0 18.6-0.5 33.9-1.1 33.9-0.6 0-1.1 1.3-1.1 2.9 0 1.6-1.3 4.3-2.9 5.9-1.6 1.6-3 4.8-3 7 0 2.2-1.7 6-3.7 8.5-2 2.4-3.7 4.9-3.7 5.5 0 0.6-0.3 1.8-0.7 2.6-0.4 0.8-0.7 2.1-0.7 2.9 0 0.8-1.7 3-3.7 4.8-2.1 1.8-4.1 5.5-4.4 8.1-0.5 2.9-1.7 5-3.3 5.4-1.4 0.4-3.8 3.1-5.2 5.9-1.4 2.9-3.6 5.3-4.8 5.3-1.2 0-2.6 1.1-3.2 2.6-0.6 1.4-1.7 3.2-2.6 4-0.8 0.8-3.4 2.3-5.6 3.3-2.2 1-4.4 2.9-4.8 4.1-0.4 1.3-2.5 2.2-5 2.2-2.4 0-5.4 1-6.6 2.2-1.3 1.2-2.3 2.7-2.3 3.3 0 0.6-3.3 1.6-7.4 2.2-4.5 0.7-9.1 2.6-11.8 4.8-3.2 2.6-6.8 3.9-12.9 4.5-4.6 0.4-38.3 1-74.7 1.3-36.5 0.2-73.3-0.1-81.8-0.7-8.5-0.6-17.8-0.7-20.6-0.1-3.6 0.7-5.5 2.1-6.5 4.6-0.7 2-0.9 5.3-0.4 7.3 0.5 2.2 2.6 4.6 5.4 5.9 2.5 1.2 4.9 3.4 5.3 4.8 0.3 1.4 2 2.9 3.6 3.3 1.6 0.4 3.3 2.1 3.7 3.7 0.4 1.6 2.3 3.8 4.3 4.8 2.1 1 4 3.6 4.4 5.9 0.5 2.2 2 4.3 3.4 4.7 1.5 0.4 3.4 3.3 4.4 6.6 1 3.3 2.9 6.3 4.1 6.7 1.2 0.4 2.6 3.4 3.1 7 0.6 3.7 2.4 7.6 4.5 9.6 2.7 2.6 3.6 5.3 4.1 12.5 0.4 5.1 1.4 11.5 2.2 14.4 0.8 2.8 1.9 9.8 2.4 15.4 0.6 6.5 0.3 12.8-0.9 17-1 3.6-2 11.6-2.2 17.6-0.2 6.1-1.1 12.7-1.9 14.8-0.8 2-2.8 5-4.5 6.6-1.7 1.6-3.5 5.3-3.9 8.1-0.4 2.9-2.3 6.6-4.4 8.5-2 1.8-3.7 4.6-3.7 6.2 0 1.7-1.2 3.3-2.9 3.7-1.6 0.4-3.5 2.5-4.1 4.7-0.6 2.2-4.9 7.9-9.5 12.6-4.7 4.6-9.2 8.5-10 8.5-0.8 0-3 1.9-4.8 4.3-1.9 2.5-4.2 3.9-5.5 3.5-1.3-0.5-3.5 1-5.5 3.8-2.7 3.7-4.4 4.6-8.9 4.5-3.8 0-6.4 1-8.7 3.4-2.3 2.4-5.6 3.6-11.8 4.3-4.7 0.5-12.2 2.5-16.6 4.5-7 3.1-9.9 3.5-19.9 3-6.5-0.3-42.3-0.5-79.6-0.5-37.2 0.1-98.4 0.4-135.8 0.8-60.1 0.7-223.7 1.3-266.8 0.2-27.2-0.7-74.3-1.3-104.7-1.3-30.4 0-62.5 0.2-71.5 0.4-13.8 0.4-17.3 0-23.9-2.7-4.2-1.7-11.5-3.6-16.2-4.1-5.7-0.7-9.8-2.1-12.5-4.5-2.8-2.3-5.9-3.4-9.9-3.4-3.3 0-5.9-0.5-5.9-1.1 0-0.6-1.1-2.5-2.6-4.3-1.8-2.2-3.8-3-6.6-2.6-3.3 0.5-4.2 0-4.5-2.7-0.2-1.8-1.7-3.9-3.5-4.7-1.7-0.9-4.8-3.4-7-5.6-2.1-2.2-4.5-4.1-5.3-4.1-0.8 0-1.8-1.6-2.2-3.6-0.4-2.1-2-4-3.7-4.5-1.7-0.4-2.9-1.9-2.9-3.6 0-1.8-1.9-4.1-4.4-5.6-3.2-1.8-4.4-3.6-4.5-6.6 0-2.5-1.4-5.3-3.7-7.3-2-1.9-3.7-4.5-3.7-5.9 0.1-1.5-0.9-4.6-2.1-7-1.3-2.5-3.2-4.5-4.5-4.5-1.7 0-2.2-1.9-2.2-8.4 0-4.7-1.7-15.8-7.8-40.9l4.1-16.9c2.2-9.3 3.9-20.4 3.9-24.7-0.1-6.6 0.3-7.8 2.8-8.5 1.6-0.4 3.6-2.4 4.4-4.4 0.8-2 1.5-5.3 1.5-7.3 0-2.2 1-4.1 2.6-4.7 1.4-0.6 3-1.7 3.6-2.6 0.6-0.9 1.1-2.7 1.1-4.2 0-1.4 1.9-4.4 4.1-6.6 2.4-2.4 3.9-5.3 3.6-7-0.4-2.2 0.6-3.2 4-4 2.7-0.7 5.3-2.7 6.4-4.9 1-2 3-3.7 4.4-3.6 1.4 0 3.9-1.8 5.6-4.1 1.6-2.2 2.9-5.8 2.9-8.1q0-4-3.3-5.7-3.4-1.7-12.9-0.5c-5.3 0.6-12.6 1-16.2 0.8-3.7-0.1-34.8-0.4-69.3-0.7-34.4-0.2-68.8-1-76.5-1.6-11.5-1-14.6-1.8-17-4.4-1.8-2-5.6-3.6-9.9-4.2-3.9-0.5-7-1.6-7-2.4 0-0.8-1-2.5-2.2-3.7-1.2-1.2-3.9-2.2-5.9-2.2q-3.7 0-4.4-3c-0.4-1.6-1.8-2.9-3-2.9-1.2 0-4.5-2.2-7.3-4.8-2.8-2.6-7-6.4-9.4-8.5-2.4-2-4.1-4.1-3.8-4.8 0.4-0.6 0-2.4-0.8-4-0.8-1.6-2.7-3.3-4.1-3.6-1.4-0.4-3.1-2.7-3.7-5.2-0.6-2.4-2.2-4.8-3.6-5.1-1.5-0.4-3.2-2.9-3.8-5.6-0.7-2.6-2.7-6.5-4.5-8.5-1.8-2-3.8-6.5-4.3-9.9-0.7-3.9-2.2-7-4-8.1-1.6-1-2.9-2.9-2.9-4.1 0-1.2-0.3-2.5-0.8-2.9-0.4-0.4-0.8-15.7-0.8-33.9 0-18.2 0.4-33.5 0.8-33.9 0.5-0.4 0.8-1.7 0.8-2.9-0.1-1.2 1.2-3.4 2.9-4.8 1.6-1.4 2.9-3.9 2.9-5.5 0-1.6 0.9-4.5 1.9-6.3 1-1.8 3-4.1 4.4-5.1 1.4-1 2.9-3.9 3.3-6.3 0.4-2.4 2.4-6.1 4.4-8.1 2-2 3.7-4.8 3.7-6.3 0-1.4 1.5-3.2 3.3-4 1.8-0.8 3.5-2.8 3.7-4.4 0.3-1.7 2.4-3.8 4.8-4.8 2.4-1 4.4-2.8 4.4-4.1 0-1.2 1.7-2.8 3.7-3.6 2-0.9 4-2.7 4.5-4.1 0.4-1.4 2.7-3.7 5.1-5.2 3-1.7 4.4-3.7 4.4-6.2 0-2-0.4-4.7-0.8-5.9-0.4-1.3-2.5-2.2-5.1-2.2-2.4 0-4.8 0.7-5.2 1.5-0.4 0.9-10.1 1.4-24.6 1.4-16.3 0-30.4-0.9-43.9-2.9-10.9-1.6-23.8-2.9-28.7-2.9-7.8 0-9.3-0.5-13.6-4.4-2.6-2.5-5.8-4.2-7-3.8-1.2 0.4-2.5 0.1-2.9-0.7-0.4-0.8-1.9-1.5-3.3-1.5-1.5 0-3.3-1.1-4.2-2.5-0.9-1.5-4-3.1-7-3.7-3-0.6-7.1-2.8-9.1-4.8-2-2-5-3.7-6.6-3.7q-3 0-3.7-3.7c-0.5-2.5-2.1-4-5.1-4.8-3.2-0.8-4.6-2.2-5.1-5.1-0.5-2.4-2-4.4-3.8-4.8-1.6-0.4-2.9-1.6-2.9-2.6 0-1-2-4.5-4.6-7.7-2.5-3.3-5.2-7.6-5.9-9.6-0.7-2-3-4.7-5.1-5.9-3.3-1.9-3.7-2.9-3-7 0.7-3.9 0.1-5.5-3.3-8.8-3.8-3.7-4.2-5.3-5.4-19.5-0.6-8.5-1.2-18.5-1.3-22.1 0-3.7 0.5-15.3 1.1-25.8 1.1-17.8 1.5-19.3 4.8-22.1 2.3-1.8 3.6-4.4 3.6-7-0.1-2.3-1.7-5.6-3.8-7.7-2-2-3.8-5.5-4-7.7-0.3-2.6-1.6-4.6-3.7-5.6-2.3-1-3.6-3.3-4.4-7.9-0.6-3.7-2.3-7.3-3.7-8.1-1.4-0.9-2.6-2.8-2.6-4.2 0-1.4-0.6-2.9-1.5-3.3-0.8-0.4-1.4-2.7-1.4-5.2 0-2.8-1.1-5.1-3-6.2-1.6-1.1-2.9-2.7-2.9-3.7 0-1-0.5-1.9-1.1-1.9-0.6 0-1.1-3.3-1.1-7.4 0-5.4-0.7-8-2.5-9.2-1.4-1-2.6-3.6-2.6-5.8-0.1-2.2-0.6-4.1-1.2-4.1-0.6 0-1.3-15.9-1.5-35.3-0.2-22.8 0.2-35.4 1.1-35.4 0.9 0 1.5-0.6 1.5-1.4 0-0.8 1.4-3.3 3.1-5.6 1.9-2.4 2.8-5.1 2.2-6.6-0.6-1.7 0.6-3.9 3.6-6.6 2.4-2.2 4.4-5.6 4.4-7.4 0-2 1.7-4.4 4.4-6.2 2.4-1.7 4.4-3.6 4.4-4.5 0-0.8 2.7-4.1 5.9-7.3 3.2-3.3 6.6-5.9 7.4-5.9 0.8 0 2.1-1.7 2.9-3.7 0.9-2.2 2.7-3.7 4.4-3.7 1.8 0 3.7-1.6 4.8-3.9 1-2.2 3.8-4.6 6.3-5.4 2.4-0.8 5.4-2.6 6.6-4.1 1.2-1.5 3.5-2.7 5.2-2.8 1.6 0 4.1-1.2 5.5-2.6 1.5-1.4 2.6-4.4 2.6-6.6 0-2.2-0.7-5.4-1.5-7-0.8-1.6-2.3-2.9-3.3-2.9-1 0-2.9-1.6-4.1-3.7-1.2-2-4.1-4.6-6.4-5.5-2.6-1.2-3.9-2.7-3.4-4.1 0.4-1.3-0.9-3.2-3.2-4.6-2.2-1.3-4.5-4.3-5.1-6.6-0.7-2.3-2.8-5.6-4.7-7.2-2.5-2.1-3.4-4.3-3.2-7.7 0.2-3.6-0.8-5.7-3.6-8.1-3-2.6-4-5-4.4-10.9-0.4-5.3-1.6-8.7-3.9-11.1-3.1-3.3-3.3-4.5-3.3-31 0-26.1 0.2-27.8 3-30.2 2.3-2 3.3-5.2 4.1-13.3 0.5-5.9 1.5-10.7 2.1-10.7 0.6 0 2.4-1.3 4-2.9 2.1-2.1 2.7-4.1 2.1-7-0.7-3.4-0.1-4.5 3.7-6.6 2.5-1.4 4.6-3.8 4.6-5.2 0-1.4 1.9-4.6 4.1-7 2.2-2.5 5.3-6.4 6.9-8.7 1.6-2.3 3.8-4.9 4.9-5.8 1.1-0.9 3.6-3.2 5.5-5 2-1.8 5.4-3.8 7.5-4.4 2.2-0.6 4.2-2.3 4.5-3.7 0.2-1.4 1.6-2.5 3-2.5 1.4 0 5.6-2.3 9.2-5.2 3.9-3 8.3-5.2 10.7-5.2 2.5 0 5.7-1.6 8.4-4.4 3.7-3.7 5.3-4.3 9.3-3.6 2.6 0.5 8.7-0.1 13.6-1.4 6.5-1.6 17.9-2.3 42.7-2.5 21.7-0.1 35.7 0.4 39 1.4 2.8 0.9 8.3 1.7 12.1 1.7 4.1 0 7.8-0.9 9.2-2.2 1.6-1.6 2-3.7 1.4-7-0.5-2.7-2.2-6-3.7-7.4-1.5-1.4-3.4-2.2-4.3-1.8-0.8 0.4-4.4-2.3-8.1-5.9-3.6-3.7-7.1-6.6-7.7-6.6-0.6 0-2.3-2.3-3.7-5.2-1.4-2.8-3.2-5.2-4-5.2-0.8 0-1.5-1.3-1.5-2.9 0-1.6-1.7-4.6-3.7-6.6-2-2.1-3.6-4.2-3.6-4.8 0-0.6-2.3-4.3-5.2-8.1-2.8-3.9-4.9-7.5-4.6-8.1 0.4-0.6-0.3-3.3-1.4-5.9-1.2-2.6-2.8-4.8-3.6-4.8-0.8 0-1.5-1-1.5-2.2 0-1.2-0.5-2.2-1.1-2.2-0.6 0-1.1-18.2-1.1-40.5 0-22.3 0.5-40.5 1.1-40.5 0.6 0 1.1-1.3 1.1-3 0-1.6 1-2.9 2.2-2.9 1.3 0 2.7-1.5 3.3-3.3 0.5-1.8 1.1-4.3 1.2-5.5 0.1-1.3 0.3-3.7 0.5-5.6 0.1-1.8 1.2-3.3 2.4-3.3 1.2 0 3.2-1.5 4.4-3.3 1.3-1.8 2.3-4.8 2.3-6.6-0.1-1.9 1-3.6 2.5-4 1.4-0.3 3.6-2.8 4.8-5.3 1.2-2.6 3.4-5.3 4.8-6 1.4-0.7 2.6-2.1 2.5-3.1 0-1 2-3.4 4.5-5.2 2.4-1.8 4.4-4.1 4.4-5.1 0-1 2-2.7 4.4-3.7 2.4-1 4.4-2.9 4.4-4.1 0-1.3 1.4-2.2 3.7-2.2 2.2 0 5.9-2.1 9.2-5.2 3.5-3.3 6.5-4.9 8.1-4.4 1.5 0.5 4.5-0.8 7-2.9 2.5-2 5.1-3.7 5.9-3.7 0.8 0 1.5-0.6 1.5-1.4 0-0.9 2-1.2 4.8-0.7 3.2 0.6 6.6-0.1 10.7-2.2 3.2-1.7 8-3.1 10.6-3.1 2.7 0.1 5.1-0.6 5.6-1.4 0.4-0.9 4-1.1 9.2-0.5 4.6 0.5 37.3 1.1 72.5 1.4 52.2 0.4 64.9 0.8 68.5 2.6 2.5 1.2 5.9 1.7 7.9 1.1 1.9-0.5 4.2-1.9 5-3.1 1.1-1.6 0.9-3.7-0.5-7.3-1.2-2.8-3.8-6.1-5.8-7.3-2-1.3-4.7-3.4-5.9-4.9-1.2-1.4-2.7-2.5-3.3-2.6-0.6 0-2.3-1.2-3.8-2.6-1.4-1.4-3.1-4.4-3.6-6.6-0.6-2.3-2.2-4.4-3.6-4.8-1.5-0.3-3.1-2.7-3.7-5.1-0.6-2.5-2.3-4.8-3.7-5.3-1.7-0.5-2.9-2.9-3.6-7-0.6-3.8-2.4-7.3-4.5-9.1-1.9-1.7-3.6-4.3-3.8-5.9-0.2-1.6-0.3-4.3-0.3-5.9 0-1.6-0.8-5.9-1.8-9.4-1-3.5-2.7-7.2-3.8-8.1-1.3-1.2-1.8-7.2-1.8-22.3 0-18.1 0.4-21.4 3.2-27.2 2-4.1 3.5-10.4 3.8-16.2 0.3-5.3 1-9.8 1.6-9.9 0.6-0.2 2.2-1.2 3.7-2.2 1.5-1.1 3-4.5 3.4-7.8 0.6-4.1 1.8-6.3 4-7.4 2-0.9 3.3-3 3.6-5.5 0.2-2.6 1.4-4.3 3.3-4.8 1.7-0.4 3.4-2.5 4-5.2 0.6-2.4 1.5-4.4 1.9-4.4 0.4 0.1 3.8-2.7 7.6-6.2 3.9-3.4 7-6.9 7-7.7 0-0.9 2-2 4.5-2.6 2.6-0.7 4.7-2.3 5.2-4.1q0.7-2.9 4.4-2.9c2.5 0 4.3-1.2 5.5-3.7 1.4-2.9 3-3.8 6.6-3.7 2.9 0 6-1.2 7.8-2.9 1.6-1.6 2.9-3.6 2.9-4.4 0-0.9 3.2-1.5 7-1.5q7 0 13.6-3.5z"/>
		<path id="Remplissage couleur unie 3" class="s1" d="m889 938.2c0 0-151.2-90.6-218-120.8-41.9-19-187.3-53.3-249.4-51.3-52.5 1.6-251 37-294.1 151.4-42.4 112.9 129.1 263.2 188.6 293.1 186.5 94 425.6-70.7 425.6-70.7 0 0 181.4-129.1 179.7-164.9z"/>
		<path id="Remplissage couleur unie 3 copy" class="s1" d="m1048.7 942.6c0 0 151.2-90.5 218-120.8 41.9-19 187.3-53.3 249.4-51.3 52.5 1.6 251 37 294 151.5 42.5 112.8-129 263.1-188.5 293-186.5 94.1-425.6-70.6-425.6-70.6 0 0-181.4-129.2-179.7-165z"/>
		<path id="Calque 1 copy" class="s2" d="m1207.2 497.3c-3.7-13.3-12.6-16-26.7-18.6-47.4-9-101.6 39.7-101.6 39.7 0 0-31.3 35.4-47.2 76.6-15.2 39.5-10.5 69.7-10.5 69.7 0 0 21.5 11.7 30.8 6.4 12.2-2.3 4.9-49.1 26.9-82 24-36 31.2-36.5 70.2-56.9 5.9-3.1 6.9-0.9 13.4-2.9 22.1-7.2 30.4-2.8 42.4-19.8 3.2-4.5 3.8-7.2 2.3-12.2z"/>
		<path id="Remplissage couleur unie 1" class="s2" d="m839.6 1135.5c-60.7 43.2-77 83.2-96.4 122.3l441.8 2.9c-12.4-32.5-33.7-86.2-90.9-122.2z"/>
		<path id="Calque 1" class="s2" d="m749.7 498.7c3.4-13.2 11.8-15.9 25-18.6 44.3-8.9 95 39.8 95 39.8 0 0 29.2 35.3 44.1 76.6 14.2 39.5 9.8 69.7 9.8 69.7 0 0-20.1 11.6-28.8 6.4-11.4-2.3-4.6-49.2-25.1-82-22.5-36-29.2-36.5-65.7-57-5.5-3.1-6.4-0.8-12.5-2.9-20.7-7.1-28.4-2.7-39.6-19.7-3-4.6-3.5-7.2-2.2-12.3zm-26.7 888.7c-6.9 46.4-3.3 83.6 10.4 123.7l472.2 1.4c14.9-40.5 19.3-74.9 14.1-125.1zm61.4 240h369.8c-13.9 51.4-93.2 127.7-144.4 136.8l-38.1 125.4-38.6-125.6c-58.1-16.7-151.4-94.5-148.7-136.6z"/>
		<path id="Forme 1" class="s3" d="m968.5 1016.2c-105.9 0-191.5-85.6-191.5-191.4 0-105.9 85.6-191.5 191.5-191.5 105.9 0 191.5 85.6 191.5 191.5 0 105.8-85.6 191.4-191.5 191.4z"/>
	</g>
</svg>